<?xml version="1.0" encoding="UTF-8" standalone="no"?>
<!-- Created with Inkscape (http://www.inkscape.org/) -->

<svg
   xmlns:dc="http://purl.org/dc/elements/1.1/"
   xmlns:cc="http://creativecommons.org/ns#"
   xmlns:rdf="http://www.w3.org/1999/02/22-rdf-syntax-ns#"
   xmlns:svg="http://www.w3.org/2000/svg"
   xmlns="http://www.w3.org/2000/svg"
   xmlns:sodipodi="http://sodipodi.sourceforge.net/DTD/sodipodi-0.dtd"
   xmlns:inkscape="http://www.inkscape.org/namespaces/inkscape"
   width="297mm"
   height="210mm"
   viewBox="0 0 1052.3622 744.09448"
   id="svg2"
   version="1.1"
   inkscape:version="0.91 r13725"
   sodipodi:docname="2ndLayer-Logo.svg"
   inkscape:export-filename="/Users/pr/Work/2ndLayer/docs/2ndLayer-Logo.png"
   inkscape:export-xdpi="110.11"
   inkscape:export-ydpi="110.11">
  <defs
     id="defs4" />
  <sodipodi:namedview
     id="base"
     pagecolor="#ffffff"
     bordercolor="#666666"
     borderopacity="1.0"
     inkscape:pageopacity="0.0"
     inkscape:pageshadow="2"
     inkscape:zoom="1.4324899"
     inkscape:cx="480.57441"
     inkscape:cy="354.75808"
     inkscape:document-units="px"
     inkscape:current-layer="layer1"
     showgrid="false"
     inkscape:window-width="2560"
     inkscape:window-height="1391"
     inkscape:window-x="2571"
     inkscape:window-y="14"
     inkscape:window-maximized="0"
     showguides="true"
     inkscape:guide-bbox="true" />
  <metadata
     id="metadata7">
    <rdf:RDF>
      <cc:Work
         rdf:about="">
        <dc:format>image/svg+xml</dc:format>
        <dc:type
           rdf:resource="http://purl.org/dc/dcmitype/StillImage" />
        <dc:title></dc:title>
      </cc:Work>
    </rdf:RDF>
  </metadata>
  <g
     inkscape:label="Ebene 1"
     inkscape:groupmode="layer"
     id="layer1"
     transform="translate(0,-308.26772)">
    <g
       id="g4190">
      <path
         d="m 110.85794,705.54752 0,-28.86518 -50.640672,0 31.650417,-43.29777 c 16.205015,-22.02869 18.230645,-30.89081 18.230645,-54.43872 0,-34.43566 -10.128138,-52.9195 -50.893876,-52.9195 -12.15376,0 -29.371587,3.79805 -32.156823,4.30446 l 0,28.86518 c 7.849303,-1.77243 19.74986,-4.55766 28.611977,-4.55766 15.95181,0 21.015877,6.58328 21.015877,22.02869 0,17.97744 -1.012814,26.33315 -18.737047,48.86824 l -35.448467,48.10864 0,31.90362 88.367969,0 z"
         style="font-style:normal;font-variant:normal;font-weight:bold;font-stretch:normal;font-size:187.5px;line-height:125%;font-family:Share-Bold;-inkscape-font-specification:'Share-Bold Bold';letter-spacing:0px;word-spacing:0px;fill:#ff6600;fill-opacity:1;stroke:none;stroke-width:1px;stroke-linecap:butt;stroke-linejoin:miter;stroke-opacity:1"
         id="path4145"
         inkscape:connector-curvature="0" />
      <path
         d="m 158.89446,705.54752 0,-82.03788 c 0.5064,-8.86212 6.58328,-17.72424 19.49665,-17.72424 9.11532,0 14.17939,3.54485 14.17939,20.50947 l 0,79.25265 33.67604,0 0,-78.49304 c 0,-34.18245 -6.07688,-50.38746 -41.01894,-50.38746 -12.40696,0 -22.53509,4.81086 -30.3844,12.15376 l -2.27883,-9.87493 -27.34596,0 0,126.60167 33.67605,0 z"
         style="font-style:normal;font-variant:normal;font-weight:bold;font-stretch:normal;font-size:187.5px;line-height:125%;font-family:Share-Bold;-inkscape-font-specification:'Share-Bold Bold';letter-spacing:0px;word-spacing:0px;fill:#ff6600;fill-opacity:1;stroke:none;stroke-width:1px;stroke-linecap:butt;stroke-linejoin:miter;stroke-opacity:1"
         id="path4147"
         inkscape:connector-curvature="0" />
      <path
         sodipodi:nodetypes="ssccccccssssscss"
         d="m 233.95648,645.53833 c 0,48.86824 13.67298,62.28802 42.03176,62.28802 13.16657,0 23.54791,-5.06407 31.65041,-12.66017 l 2.53204,10.38134 27.34596,0 0,-179.24234 -33.67605,0 0,50.61504 c -2.78523,0 -5.82367,-0.2532 -9.11532,-0.2532 -42.53816,0 -60.7688,16.96462 -60.7688,68.87131 z m 50.89387,33.42284 c -11.90055,0 -16.71142,-5.57048 -16.71142,-31.14401 0,-34.94206 6.58329,-42.28496 24.30752,-42.28496 3.54485,0 7.5961,0.50641 11.39415,0.75961 l 0,53.67911 c 0,9.11532 -7.8493,18.99025 -18.99025,18.99025 z"
         style="font-style:normal;font-variant:normal;font-weight:bold;font-stretch:normal;font-size:187.5px;line-height:125%;font-family:Share-Bold;-inkscape-font-specification:'Share-Bold Bold';letter-spacing:0px;word-spacing:0px;fill:#ff6600;fill-opacity:1;stroke:none;stroke-width:1px;stroke-linecap:butt;stroke-linejoin:miter;stroke-opacity:1"
         id="path4149"
         inkscape:connector-curvature="0" />
      <path
         sodipodi:nodetypes="ccccccc"
         d="m 437.6458,705.54752 0,-29.37159 -51.40027,0 0,-149.87075 -34.68886,0 0,179.24234 z"
         style="font-style:normal;font-variant:normal;font-weight:bold;font-stretch:normal;font-size:187.5px;line-height:125%;font-family:Share-Bold;-inkscape-font-specification:'Share-Bold Bold';letter-spacing:0px;word-spacing:0px;fill:#ff6600;fill-opacity:1;stroke:none;stroke-width:1px;stroke-linecap:butt;stroke-linejoin:miter;stroke-opacity:1"
         id="path4151"
         inkscape:connector-curvature="0" />
      <path
         d="m 554.17645,705.54752 0,-25.32034 c -7.5961,0 -9.87493,-3.03844 -9.87493,-8.1025 l 0,-50.13426 c 0,-31.14401 -7.5961,-45.3234 -50.64067,-45.3234 -12.40696,0 -29.62479,2.27883 -38.99331,5.06407 l 0,28.86518 c 12.66016,-3.79805 24.56072,-6.07688 38.99331,-6.07688 12.66017,0 16.96462,5.57047 16.96462,15.1922 l 0,5.31727 -11.39415,0 c -34.43565,0 -53.6791,11.64735 -53.6791,42.28495 0,30.89081 16.71142,40.51254 38.74011,40.51254 16.96462,0 27.09275,-4.81087 33.42284,-12.66017 4.81086,8.60891 14.939,10.38134 21.77549,10.38134 l 14.68579,0 z m -60.2624,-26.07995 c -10.38133,0 -14.17938,-6.07688 -14.17938,-13.92618 0,-11.39415 7.34289,-15.69861 18.23064,-15.69861 l 12.66016,0 0,11.39415 c 0,6.58329 -2.78523,18.23064 -16.71142,18.23064 z"
         style="font-style:normal;font-variant:normal;font-weight:bold;font-stretch:normal;font-size:187.5px;line-height:125%;font-family:Share-Bold;-inkscape-font-specification:'Share-Bold Bold';letter-spacing:0px;word-spacing:0px;fill:#ff6600;fill-opacity:1;stroke:none;stroke-width:1px;stroke-linecap:butt;stroke-linejoin:miter;stroke-opacity:1"
         id="path4153"
         inkscape:connector-curvature="0" />
      <path
         d="m 662.50306,578.94585 -32.66323,0 -21.52228,98.4961 -24.56073,-98.4961 -35.95487,0 40.51253,126.60167 8.60892,0 -0.75961,4.55766 c -1.26602,7.08969 -5.57048,11.14094 -12.40697,11.14094 -4.05125,0 -8.35571,-0.2532 -12.40696,-0.75961 l 0,28.61198 c 3.03844,0.50641 17.47103,1.26602 22.7883,1.26602 18.73705,0 30.6376,-11.64736 35.95487,-34.18245 l 32.41003,-137.23621 z"
         style="font-style:normal;font-variant:normal;font-weight:bold;font-stretch:normal;font-size:187.5px;line-height:125%;font-family:Share-Bold;-inkscape-font-specification:'Share-Bold Bold';letter-spacing:0px;word-spacing:0px;fill:#ff6600;fill-opacity:1;stroke:none;stroke-width:1px;stroke-linecap:butt;stroke-linejoin:miter;stroke-opacity:1"
         id="path4155"
         inkscape:connector-curvature="0" />
      <path
         d="m 761.82738,654.65365 0,-21.26908 c 0,-35.95488 -9.62173,-56.71755 -47.85543,-56.71755 -33.16964,0 -51.90668,18.73705 -51.90668,65.57966 0,56.46435 18.48384,65.57967 55.19832,65.57967 9.11532,0 27.09276,-2.02563 35.19527,-4.30446 l 0,-28.35877 c -7.3429,1.51922 -21.26908,3.79805 -35.19527,3.79805 -15.1922,0 -20.00306,-5.57048 -21.01587,-24.30752 l 65.57966,0 z m -48.36184,-50.13426 c 11.14095,0 15.95181,6.33008 15.95181,18.73704 l 0,6.58329 -32.91643,0 c 1.51922,-18.99025 6.33008,-25.32033 16.96462,-25.32033 z"
         style="font-style:normal;font-variant:normal;font-weight:bold;font-stretch:normal;font-size:187.5px;line-height:125%;font-family:Share-Bold;-inkscape-font-specification:'Share-Bold Bold';letter-spacing:0px;word-spacing:0px;fill:#ff6600;fill-opacity:1;stroke:none;stroke-width:1px;stroke-linecap:butt;stroke-linejoin:miter;stroke-opacity:1"
         id="path4157"
         inkscape:connector-curvature="0" />
      <path
         d="m 805.66833,705.54752 0,-58.99638 c 0,-17.97744 4.81087,-36.71448 21.52229,-36.71448 4.81086,0 8.35571,0.5064 12.66016,1.51922 l 0,-33.42285 c -3.54484,-0.75961 -7.8493,-1.26601 -11.64735,-1.26601 -10.63454,0 -19.49666,5.57047 -26.33315,13.67298 l -2.53203,-11.39415 -27.34596,0 0,126.60167 33.67604,0 z"
         style="font-style:normal;font-variant:normal;font-weight:bold;font-stretch:normal;font-size:187.5px;line-height:125%;font-family:Share-Bold;-inkscape-font-specification:'Share-Bold Bold';letter-spacing:0px;word-spacing:0px;fill:#ff6600;fill-opacity:1;stroke:none;stroke-width:1px;stroke-linecap:butt;stroke-linejoin:miter;stroke-opacity:1"
         id="path4159"
         inkscape:connector-curvature="0" />
    </g>
  </g>
</svg>
