<?xml version="1.0" encoding="UTF-8" standalone="no"?>
<!-- Created with Inkscape (http://www.inkscape.org/) -->

<svg
   xmlns:dc="http://purl.org/dc/elements/1.1/"
   xmlns:cc="http://creativecommons.org/ns#"
   xmlns:rdf="http://www.w3.org/1999/02/22-rdf-syntax-ns#"
   xmlns:svg="http://www.w3.org/2000/svg"
   xmlns="http://www.w3.org/2000/svg"
   xmlns:sodipodi="http://sodipodi.sourceforge.net/DTD/sodipodi-0.dtd"
   xmlns:inkscape="http://www.inkscape.org/namespaces/inkscape"
   width="600"
   height="250"
   viewBox="0 0 562.50001 234.37499"
   id="svg2"
   version="1.1"
   inkscape:version="0.92.2 5c3e80d, 2017-08-06"
   sodipodi:docname="2ndLayer-Logo.svg"
   inkscape:export-filename="/Users/pr/Work/2ndLayer/docs/2ndLayer-Logo.png"
   inkscape:export-xdpi="110.11"
   inkscape:export-ydpi="110.11">
  <defs
     id="defs4" />
  <sodipodi:namedview
     id="base"
     pagecolor="#ffffff"
     bordercolor="#666666"
     borderopacity="1.0"
     inkscape:pageopacity="0.0"
     inkscape:pageshadow="2"
     inkscape:zoom="2.5740895"
     inkscape:cx="287.86037"
     inkscape:cy="191.599"
     inkscape:document-units="px"
     inkscape:current-layer="layer3"
     showgrid="false"
     inkscape:window-width="2560"
     inkscape:window-height="1391"
     inkscape:window-x="0"
     inkscape:window-y="-22"
     inkscape:window-maximized="0"
     showguides="true"
     inkscape:guide-bbox="true"
     units="px"
     inkscape:measure-start="0,0"
     inkscape:measure-end="0,0" />
  <metadata
     id="metadata7">
    <rdf:RDF>
      <cc:Work
         rdf:about="">
        <dc:format>image/svg+xml</dc:format>
        <dc:type
           rdf:resource="http://purl.org/dc/dcmitype/StillImage" />
        <dc:title></dc:title>
      </cc:Work>
    </rdf:RDF>
  </metadata>
  <g
     inkscape:groupmode="layer"
     id="layer3"
     inkscape:label="big-lettering"
     style="display:inline">
    <g
       id="g71504"
       transform="translate(4.869712,0.23430776)"
       inkscape:export-xdpi="349.74316"
       inkscape:export-ydpi="349.74316">
      <g
         transform="matrix(1.9537179,0,0,1.9537179,-208.25103,-1639.2604)"
         id="text71237"
         style="font-style:normal;font-variant:normal;font-weight:900;font-stretch:normal;font-size:62.49999619px;line-height:1.25;font-family:Orbitron;-inkscape-font-specification:'Orbitron Heavy';letter-spacing:0px;word-spacing:0px;fill:#000000;fill-opacity:1;stroke:none;stroke-width:0.9375"
         aria-label="PHP TOOLKIT">
        <path
           inkscape:connector-curvature="0"
           id="path71239"
           style="font-style:normal;font-variant:normal;font-weight:300;font-stretch:normal;font-size:10px;font-family:'Work Sans';-inkscape-font-specification:'Work Sans Light';stroke-width:0.9375"
           d="m 130.7639,921.11967 h -2.22 v 6.6 h 0.57 v -2.7 h 1.65 c 1.36,0 2.23,-0.74 2.23,-1.95 0,-1.21 -0.87,-1.95 -2.23,-1.95 z m -0.07,3.37 h -1.58 v -2.84 h 1.58 c 1.13,0 1.71,0.51 1.71,1.42 0,0.91 -0.58,1.42 -1.71,1.42 z" />
        <path
           inkscape:connector-curvature="0"
           id="path71241"
           style="font-style:normal;font-variant:normal;font-weight:300;font-stretch:normal;font-size:10px;font-family:'Work Sans';-inkscape-font-specification:'Work Sans Light';stroke-width:0.9375"
           d="m 139.00187,921.11967 v 2.98 h -3.97 v -2.98 h -0.57 v 6.6 h 0.57 v -3.09 h 3.97 v 3.09 h 0.57 v -6.6 z" />
        <path
           inkscape:connector-curvature="0"
           id="path71243"
           style="font-style:normal;font-variant:normal;font-weight:300;font-stretch:normal;font-size:10px;font-family:'Work Sans';-inkscape-font-specification:'Work Sans Light';stroke-width:0.9375"
           d="m 143.8889,921.11967 h -2.22 v 6.6 h 0.57 v -2.7 h 1.65 c 1.36,0 2.23,-0.74 2.23,-1.95 0,-1.21 -0.87,-1.95 -2.23,-1.95 z m -0.07,3.37 h -1.58 v -2.84 h 1.58 c 1.13,0 1.71,0.51 1.71,1.42 0,0.91 -0.58,1.42 -1.71,1.42 z" />
        <path
           inkscape:connector-curvature="0"
           id="path71245"
           style="font-style:normal;font-variant:normal;font-weight:300;font-stretch:normal;font-size:10px;font-family:'Work Sans';-inkscape-font-specification:'Work Sans Light';stroke-width:0.9375"
           d="m 154.79265,921.11967 h -5.34 v 0.53 h 2.39 v 6.07 h 0.57 v -6.07 h 2.38 z" />
        <path
           inkscape:connector-curvature="0"
           id="path71247"
           style="font-style:normal;font-variant:normal;font-weight:300;font-stretch:normal;font-size:10px;font-family:'Work Sans';-inkscape-font-specification:'Work Sans Light';stroke-width:0.9375"
           d="m 158.40046,921.01967 c -1.87,0 -3.04,1.31 -3.04,3.4 0,2.09 1.17,3.4 3.04,3.4 1.87,0 3.04,-1.31 3.04,-3.4 0,-2.09 -1.17,-3.4 -3.04,-3.4 z m 0,0.53 c 1.51,0 2.45,1.09 2.45,2.87 0,1.78 -0.94,2.87 -2.45,2.87 -1.51,0 -2.45,-1.09 -2.45,-2.87 0,-1.78 0.94,-2.87 2.45,-2.87 z" />
        <path
           inkscape:connector-curvature="0"
           id="path71249"
           style="font-style:normal;font-variant:normal;font-weight:300;font-stretch:normal;font-size:10px;font-family:'Work Sans';-inkscape-font-specification:'Work Sans Light';stroke-width:0.9375"
           d="m 165.76374,921.01967 c -1.87,0 -3.04,1.31 -3.04,3.4 0,2.09 1.17,3.4 3.04,3.4 1.87,0 3.04,-1.31 3.04,-3.4 0,-2.09 -1.17,-3.4 -3.04,-3.4 z m 0,0.53 c 1.51,0 2.45,1.09 2.45,2.87 0,1.78 -0.94,2.87 -2.45,2.87 -1.51,0 -2.45,-1.09 -2.45,-2.87 0,-1.78 0.94,-2.87 2.45,-2.87 z" />
        <path
           inkscape:connector-curvature="0"
           id="path71251"
           style="font-style:normal;font-variant:normal;font-weight:300;font-stretch:normal;font-size:10px;font-family:'Work Sans';-inkscape-font-specification:'Work Sans Light';stroke-width:0.9375"
           d="m 171.06702,927.18967 v -6.07 h -0.57 v 6.6 h 4.48 v -0.53 z" />
        <path
           inkscape:connector-curvature="0"
           id="path71253"
           style="font-style:normal;font-variant:normal;font-weight:300;font-stretch:normal;font-size:10px;font-family:'Work Sans';-inkscape-font-specification:'Work Sans Light';stroke-width:0.9375"
           d="m 180.51827,927.71967 h 0.69 l -2.67,-3.93 2.61,-2.67 h -0.75 l -3.55,3.63 v -3.63 h -0.57 v 6.6 h 0.57 v -2.2 l 1.28,-1.31 z" />
        <path
           inkscape:connector-curvature="0"
           id="path71255"
           style="font-style:normal;font-variant:normal;font-weight:300;font-stretch:normal;font-size:10px;font-family:'Work Sans';-inkscape-font-specification:'Work Sans Light';stroke-width:0.9375"
           d="m 183.03968,921.11967 h -0.57 v 6.6 h 0.57 z" />
        <path
           inkscape:connector-curvature="0"
           id="path71257"
           style="font-style:normal;font-variant:normal;font-weight:300;font-stretch:normal;font-size:10px;font-family:'Work Sans';-inkscape-font-specification:'Work Sans Light';stroke-width:0.9375"
           d="m 189.67546,921.11967 h -5.34 v 0.53 h 2.39 v 6.07 h 0.57 v -6.07 h 2.38 z" />
      </g>
      <g
         transform="matrix(0.98971808,0,0,0.98971808,0.43189299,-810.31516)"
         id="g71229"
         style="display:inline">
        <path
           inkscape:connector-curvature="0"
           id="path71187"
           style="font-style:normal;font-variant:normal;font-weight:100;font-stretch:normal;font-size:medium;line-height:1.25;font-family:'Work Sans';-inkscape-font-specification:'Work Sans Thin';letter-spacing:0px;word-spacing:0px;fill:#000000;fill-opacity:1;stroke:none;stroke-width:1.91005218"
           d="m 42.896652,965.14611 h 55.773522 v -1.7827 H 49.900176 46.334745 V 963.236 c 30.178823,-25.34003 48.642662,-40.1111 48.642662,-58.57494 0,-15.53509 -9.804936,-24.83067 -25.849373,-24.83067 -16.171775,0 -26.35872,10.31428 -27.122741,26.23139 l 1.910052,0.76402 c 0.636686,-15.28042 10.186945,-25.21269 25.212689,-25.21269 14.77107,0 23.93932,8.6589 23.93932,23.04795 0,17.69983 -20.119215,33.61692 -50.170702,58.70228 z" />
        <path
           inkscape:connector-curvature="0"
           id="path71189"
           style="font-style:normal;font-variant:normal;font-weight:100;font-stretch:normal;font-size:medium;line-height:1.25;font-family:'Work Sans';-inkscape-font-specification:'Work Sans Thin';letter-spacing:0px;word-spacing:0px;fill:#000000;fill-opacity:1;stroke:none;stroke-width:1.74590492"
           d="m 139.4316,905.78534 c -12.22134,0 -21.53283,7.10002 -24.20988,16.64429 v -15.48034 h -1.8623 v 58.19682 h 1.8623 v -35.0345 c 0,-12.10493 10.24264,-22.69676 23.8607,-22.69676 12.33772,0 20.1361,7.21642 20.1361,19.67053 v 38.06073 h 1.8623 V 926.8526 c 0,-13.38527 -8.26396,-21.06726 -21.64922,-21.06726 z" />
        <path
           inkscape:connector-curvature="0"
           id="path71191"
           style="font-style:normal;font-variant:normal;font-weight:100;font-stretch:normal;font-size:medium;line-height:1.25;font-family:'Work Sans';-inkscape-font-specification:'Work Sans Thin';letter-spacing:0px;word-spacing:0px;fill:#000000;fill-opacity:1;stroke:none;stroke-width:1.74590492"
           d="m 226.6359,880.17874 v 43.9968 c -3.02623,-11.75576 -11.75575,-18.3902 -23.7443,-18.3902 -16.76069,0 -26.65414,11.2902 -26.65414,30.26235 0,18.97217 9.89345,30.26236 26.65414,30.26236 12.22133,0 20.83447,-6.75083 23.7443,-18.62299 v 17.45905 h 1.86231 v -84.96737 z m -23.39512,84.50179 c -15.82953,0 -25.14103,-10.59181 -25.14103,-28.63284 0,-18.04101 9.3115,-28.63284 25.14103,-28.63284 14.20004,0 23.39512,10.70823 23.39512,28.28366 v 0.81476 c 0,17.57545 -9.31148,28.16726 -23.39512,28.16726 z"
           sodipodi:nodetypes="ccssscccccssssss" />
        <path
           inkscape:connector-curvature="0"
           id="path71193"
           style="font-style:normal;font-variant:normal;font-weight:100;font-stretch:normal;font-size:medium;line-height:1.25;font-family:'Work Sans';-inkscape-font-specification:'Work Sans Thin';letter-spacing:0px;word-spacing:0px;fill:#000000;fill-opacity:1;stroke:none;stroke-width:1.74590492"
           d="m 251.88605,963.51661 7.6e-4,-83.33927 h -1.86316 l 1.2e-4,84.96877 h 50.28206 v -1.6295 z"
           sodipodi:nodetypes="ccccccc" />
        <path
           inkscape:connector-curvature="0"
           id="path71195"
           style="font-style:normal;font-variant:normal;font-weight:100;font-stretch:normal;font-size:medium;line-height:1.25;font-family:'Work Sans';-inkscape-font-specification:'Work Sans Thin';letter-spacing:0px;word-spacing:0px;fill:#000000;fill-opacity:1;stroke:none;stroke-width:1.74590492"
           d="m 357.33506,964.68053 c -3.84099,0 -6.40166,-2.67705 -6.40166,-8.38034 v -31.65907 c 0,-12.22134 -7.2164,-18.85578 -20.36888,-18.85578 -11.63937,0 -18.73939,4.53936 -22.34758,14.20003 l 1.51311,1.16394 c 3.49181,-9.77707 10.24265,-13.73446 20.83447,-13.73446 11.98854,0 18.5066,6.40166 18.5066,17.22627 v 7.2164 l -20.60168,3.84099 c -15.13118,2.79345 -21.41644,7.68198 -21.41644,16.87709 0,8.61312 6.75084,13.73445 18.15741,13.73445 9.66067,0 20.60168,-3.84099 23.86071,-12.33773 v 1.62951 c 0,9.0787 4.77213,10.70822 8.38034,10.70822 1.86229,0 3.14263,-0.34918 4.19017,-1.04754 l 0.11645,-1.62952 c -1.04754,0.81476 -2.67705,1.04754 -4.42295,1.04754 z m -31.54269,0 c -10.59181,0 -16.87707,-4.53935 -16.87707,-12.10493 0,-7.79839 5.5869,-12.68692 20.83446,-15.48037 l 19.32136,-3.60819 v 14.08362 c 0,12.10496 -14.20004,17.10987 -23.27875,17.10987 z" />
        <path
           inkscape:connector-curvature="0"
           id="path71197"
           style="font-style:normal;font-variant:normal;font-weight:100;font-stretch:normal;font-size:medium;line-height:1.25;font-family:'Work Sans';-inkscape-font-specification:'Work Sans Thin';letter-spacing:0px;word-spacing:0px;fill:#000000;fill-opacity:1;stroke:none;stroke-width:1.74590492"
           d="m 413.54775,906.94929 h -2.09509 l -21.06725,51.0968 -1.97869,5.00494 -2.09509,-4.88854 -21.53282,-51.2132 h -2.09508 l 24.79185,58.31322 -4.65576,11.29017 c -3.84099,9.31151 -7.91476,11.98856 -13.96723,11.98856 -3.25903,0 -6.40166,-0.93115 -8.14757,-3.60821 l -1.04754,1.51312 c 1.62952,2.44427 5.00493,3.72459 9.07871,3.72459 7.21641,0 11.63937,-3.14263 15.82954,-13.26887 z" />
        <path
           inkscape:connector-curvature="0"
           id="path71199"
           style="font-style:normal;font-variant:normal;font-weight:100;font-stretch:normal;font-size:medium;line-height:1.25;font-family:'Work Sans';-inkscape-font-specification:'Work Sans Thin';letter-spacing:0px;word-spacing:0px;fill:#000000;fill-opacity:1;stroke:none;stroke-width:1.74590492"
           d="m 471.02259,936.51327 c 0,-19.20495 -9.1951,-30.72793 -24.55907,-30.72793 -16.2951,0 -26.07217,11.2902 -26.07217,30.26235 0,18.97217 9.89345,30.26236 26.65414,30.26236 10.59182,0 19.43775,-5.23771 23.51152,-13.85085 l -1.51312,-0.81475 c -3.84099,8.14755 -12.22134,13.03608 -21.9984,13.03608 -15.36397,0 -24.32627,-10.24263 -24.79185,-27.3525 h 48.76895 z m -24.55907,-29.09842 c 14.5492,0 22.58037,10.59183 22.92955,28.16728 h -47.13943 c 0.11645,-17.69185 9.0787,-28.16728 24.20988,-28.16728 z" />
        <path
           inkscape:connector-curvature="0"
           id="path71201"
           style="font-style:normal;font-variant:normal;font-weight:100;font-stretch:normal;font-size:medium;line-height:1.25;font-family:'Work Sans';-inkscape-font-specification:'Work Sans Thin';letter-spacing:0px;word-spacing:0px;fill:#000000;fill-opacity:1;stroke:none;stroke-width:1.74590492"
           d="m 507.36105,905.78534 c -9.42788,0 -16.5279,7.21641 -19.08855,16.29511 v -15.13116 h -1.86231 v 58.19682 h 1.86231 v -33.87055 c 0,-12.10494 8.03116,-23.86071 18.85577,-23.86071 4.30655,0 5.93608,1.04754 7.44918,2.56067 l 1.04755,-1.39673 c -1.62951,-1.6295 -4.07378,-2.79345 -8.26395,-2.79345 z" />
      </g>
    </g>
  </g>
</svg>
